<svg width="24" height="24" viewBox="0 0 24 24" fill="none" xmlns="http://www.w3.org/2000/svg">
<rect width="24" height="24" fill="#1E1E1E"/>
<g id="Home Page" clip-path="url(#clip0_0_1)">
<rect width="1440" height="2809" transform="translate(-622 -2737)" fill="white"/>
<g id="Frame 104">
<g id="Frame 93">
<g id="Frame 119">
<g id="Frame 92">
<g id="Frame 90">
<g id="Frame 87">
<g id="Frame 52">
<g id="Frame 50">
<g id="Frame 49">
<path id="Meal made with kidney beans, plantain, okra, and hearty vegetables." d="M-88.888 -37.88V-27H-90.152V-35.112L-93.784 -29.08H-94.616L-98.28 -35.144L-98.248 -27H-99.512V-37.88H-98.552L-94.2 -30.616L-89.848 -37.88H-88.888ZM-82.6859 -34.616C-80.3019 -34.616 -78.8139 -32.776 -79.0539 -30.344H-85.2619C-85.1179 -28.968 -84.1739 -27.896 -82.6219 -27.896C-81.6779 -27.896 -80.9579 -28.232 -80.6379 -28.856H-79.2779C-79.7419 -27.576 -81.0219 -26.808 -82.6219 -26.808C-84.9099 -26.808 -86.4939 -28.52 -86.4939 -30.712C-86.4939 -32.904 -84.9259 -34.616 -82.6859 -34.616ZM-82.6859 -33.56C-84.1579 -33.56 -85.0699 -32.52 -85.2459 -31.208H-80.2699C-80.3339 -32.68 -81.2779 -33.56 -82.6859 -33.56ZM-70.7337 -34.424H-69.5177V-27H-70.7337V-27.768C-71.3897 -27.16 -72.2857 -26.808 -73.3417 -26.808C-75.4697 -26.808 -77.1657 -28.536 -77.1657 -30.712C-77.1657 -32.872 -75.4697 -34.616 -73.3417 -34.616C-72.2857 -34.616 -71.3897 -34.264 -70.7337 -33.656V-34.424ZM-73.1817 -27.928C-72.2057 -27.928 -71.3417 -28.296 -70.7337 -29.192V-32.232C-71.3417 -33.128 -72.2057 -33.496 -73.1817 -33.496C-74.7497 -33.496 -75.9497 -32.248 -75.9497 -30.712C-75.9497 -29.176 -74.7497 -27.928 -73.1817 -27.928ZM-66.8911 -38.36H-65.6751V-27H-66.8911V-38.36ZM-49.7425 -34.616C-47.8545 -34.616 -46.6225 -33.512 -46.6225 -31.384V-27H-47.8385V-31.384C-47.8385 -32.856 -48.6065 -33.496 -49.8225 -33.496C-50.7185 -33.496 -51.5505 -33.128 -52.1425 -32.232C-52.0945 -31.992 -52.0785 -31.736 -52.0785 -31.448V-27H-53.2945V-31.448C-53.2945 -32.904 -54.0785 -33.496 -55.2145 -33.496C-56.1425 -33.496 -56.9585 -33.112 -57.5345 -32.248V-27H-58.7505V-34.424H-57.5345V-33.624C-56.9265 -34.248 -56.1585 -34.616 -55.0865 -34.616C-53.9505 -34.616 -53.0705 -34.2 -52.5585 -33.384C-51.8385 -34.168 -50.9265 -34.616 -49.7425 -34.616ZM-38.2494 -34.424H-37.0334V-27H-38.2494V-27.768C-38.9054 -27.16 -39.8014 -26.808 -40.8574 -26.808C-42.9854 -26.808 -44.6814 -28.536 -44.6814 -30.712C-44.6814 -32.872 -42.9854 -34.616 -40.8574 -34.616C-39.8014 -34.616 -38.9054 -34.264 -38.2494 -33.656V-34.424ZM-40.6974 -27.928C-39.7214 -27.928 -38.8574 -28.296 -38.2494 -29.192V-32.232C-38.8574 -33.128 -39.7214 -33.496 -40.6974 -33.496C-42.2654 -33.496 -43.4654 -32.248 -43.4654 -30.712C-43.4654 -29.176 -42.2654 -27.928 -40.6974 -27.928ZM-28.4369 -38.36H-27.2209V-27H-28.4369V-27.768C-29.0929 -27.16 -29.9889 -26.808 -31.0449 -26.808C-33.1729 -26.808 -34.8689 -28.552 -34.8689 -30.712C-34.8689 -32.888 -33.1729 -34.616 -31.0449 -34.616C-29.9889 -34.616 -29.0929 -34.264 -28.4369 -33.656V-38.36ZM-30.8849 -27.928C-29.9089 -27.928 -29.0449 -28.296 -28.4369 -29.192V-32.232C-29.0449 -33.128 -29.9089 -33.496 -30.8849 -33.496C-32.4529 -33.496 -33.6529 -32.248 -33.6529 -30.712C-33.6529 -29.176 -32.4529 -27.928 -30.8849 -27.928ZM-21.2171 -34.616C-18.8331 -34.616 -17.3451 -32.776 -17.5851 -30.344H-23.7931C-23.6491 -28.968 -22.7051 -27.896 -21.1531 -27.896C-20.2091 -27.896 -19.4891 -28.232 -19.1691 -28.856H-17.8091C-18.2731 -27.576 -19.5531 -26.808 -21.1531 -26.808C-23.4411 -26.808 -25.0251 -28.52 -25.0251 -30.712C-25.0251 -32.904 -23.4571 -34.616 -21.2171 -34.616ZM-21.2171 -33.56C-22.6891 -33.56 -23.6011 -32.52 -23.7771 -31.208H-18.8011C-18.8651 -32.68 -19.8091 -33.56 -21.2171 -33.56ZM-1.6405 -34.424H-0.3285L-3.0325 -27H-4.1365L-6.0565 -32.68L-7.9765 -27H-9.0805L-11.7845 -34.424H-10.4725L-8.5205 -28.84L-6.5845 -34.424H-5.5285L-3.5925 -28.856L-1.6405 -34.424ZM2.33113 -36.408C1.86713 -36.408 1.51513 -36.76 1.51513 -37.208C1.51513 -37.672 1.86713 -38.024 2.33113 -38.024C2.79513 -38.024 3.16313 -37.672 3.16313 -37.208C3.16313 -36.76 2.79513 -36.408 2.33113 -36.408ZM1.73913 -34.424H2.95513V-27H1.73913V-34.424ZM10.5331 -28.2L10.7091 -27.08C10.1011 -26.872 9.58913 -26.808 9.14113 -26.808C7.31713 -26.808 6.43713 -27.816 6.43713 -29.752V-33.384H4.50113V-34.424H6.43713V-37.16H7.65313V-34.424H10.4531V-33.384H7.65313V-29.752C7.65313 -28.472 8.19713 -27.944 9.25313 -27.944C9.66913 -27.944 10.1331 -28.056 10.5331 -28.2ZM16.4809 -34.616C18.3689 -34.616 19.6649 -33.352 19.6649 -31.256V-27H18.4489V-31.192C18.4489 -32.696 17.5689 -33.496 16.2569 -33.496C15.3769 -33.496 14.4649 -33.048 13.8249 -32.216V-27H12.6089V-38.36H13.8249V-33.592C14.5129 -34.248 15.4249 -34.616 16.4809 -34.616ZM32.0884 -27L29.0484 -30.472L27.5124 -28.984V-27H26.2964V-38.36H27.5124V-30.584L31.5284 -34.424H33.0964L29.9124 -31.32L33.6724 -27H32.0884ZM36.0811 -36.408C35.6171 -36.408 35.2651 -36.76 35.2651 -37.208C35.2651 -37.672 35.6171 -38.024 36.0811 -38.024C36.5451 -38.024 36.9131 -37.672 36.9131 -37.208C36.9131 -36.76 36.5451 -36.408 36.0811 -36.408ZM35.4891 -34.424H36.7051V-27H35.4891V-34.424ZM45.4381 -38.36H46.6541V-27H45.4381V-27.768C44.7821 -27.16 43.8861 -26.808 42.8301 -26.808C40.7021 -26.808 39.0061 -28.552 39.0061 -30.712C39.0061 -32.888 40.7021 -34.616 42.8301 -34.616C43.8861 -34.616 44.7821 -34.264 45.4381 -33.656V-38.36ZM42.9901 -27.928C43.9661 -27.928 44.8301 -28.296 45.4381 -29.192V-32.232C44.8301 -33.128 43.9661 -33.496 42.9901 -33.496C41.4221 -33.496 40.2221 -32.248 40.2221 -30.712C40.2221 -29.176 41.4221 -27.928 42.9901 -27.928ZM53.1528 -34.616C55.0408 -34.616 56.3368 -33.352 56.3368 -31.256V-27H55.1208V-31.192C55.1208 -32.696 54.2408 -33.496 52.9288 -33.496C52.0488 -33.496 51.1368 -33.048 50.4968 -32.216V-27H49.2808V-34.424H50.4968V-33.592C51.1848 -34.248 52.0968 -34.616 53.1528 -34.616ZM62.0798 -34.616C64.4638 -34.616 65.9518 -32.776 65.7118 -30.344H59.5038C59.6478 -28.968 60.5918 -27.896 62.1438 -27.896C63.0878 -27.896 63.8078 -28.232 64.1278 -28.856H65.4878C65.0238 -27.576 63.7438 -26.808 62.1438 -26.808C59.8558 -26.808 58.2718 -28.52 58.2718 -30.712C58.2718 -32.904 59.8398 -34.616 62.0798 -34.616ZM62.0798 -33.56C60.6078 -33.56 59.6957 -32.52 59.5198 -31.208H64.4958C64.4318 -32.68 63.4878 -33.56 62.0798 -33.56ZM73.8553 -34.424H75.1513L70.1273 -23.304H68.8313L70.3833 -26.744L66.5592 -34.424H67.8713L70.9753 -28.04L73.8553 -34.424ZM84.4641 -34.616C86.5921 -34.616 88.2881 -32.888 88.2881 -30.712C88.2881 -28.552 86.5921 -26.808 84.4641 -26.808C83.4081 -26.808 82.5121 -27.16 81.8561 -27.768V-27H80.6401V-38.36H81.8561V-33.656C82.5121 -34.264 83.4081 -34.616 84.4641 -34.616ZM84.3041 -27.928C85.8721 -27.928 87.0721 -29.176 87.0721 -30.712C87.0721 -32.248 85.8721 -33.496 84.3041 -33.496C83.3281 -33.496 82.4641 -33.128 81.8561 -32.232V-29.192C82.4641 -28.296 83.3281 -27.928 84.3041 -27.928ZM93.9548 -34.616C96.3388 -34.616 97.8268 -32.776 97.5868 -30.344H91.3788C91.5228 -28.968 92.4668 -27.896 94.0188 -27.896C94.9628 -27.896 95.6828 -28.232 96.0028 -28.856H97.3628C96.8988 -27.576 95.6188 -26.808 94.0188 -26.808C91.7308 -26.808 90.1468 -28.52 90.1468 -30.712C90.1468 -32.904 91.7148 -34.616 93.9548 -34.616ZM93.9548 -33.56C92.4828 -33.56 91.5707 -32.52 91.3948 -31.208H96.3708C96.3068 -32.68 95.3628 -33.56 93.9548 -33.56ZM105.907 -34.424H107.123V-27H105.907V-27.768C105.251 -27.16 104.355 -26.808 103.299 -26.808C101.171 -26.808 99.4749 -28.536 99.4749 -30.712C99.4749 -32.872 101.171 -34.616 103.299 -34.616C104.355 -34.616 105.251 -34.264 105.907 -33.656V-34.424ZM103.459 -27.928C104.435 -27.928 105.299 -28.296 105.907 -29.192V-32.232C105.299 -33.128 104.435 -33.496 103.459 -33.496C101.891 -33.496 100.691 -32.248 100.691 -30.712C100.691 -29.176 101.891 -27.928 103.459 -27.928ZM113.622 -34.616C115.51 -34.616 116.806 -33.352 116.806 -31.256V-27H115.59V-31.192C115.59 -32.696 114.71 -33.496 113.398 -33.496C112.518 -33.496 111.606 -33.048 110.966 -32.216V-27H109.75V-34.424H110.966V-33.592C111.654 -34.248 112.566 -34.616 113.622 -34.616ZM119.67 -29.336C119.894 -28.344 120.662 -27.816 122.022 -27.816C123.174 -27.816 123.958 -28.248 123.958 -29C123.958 -29.624 123.462 -29.992 122.742 -30.12L121.062 -30.392C119.846 -30.6 118.854 -31.144 118.854 -32.408C118.854 -33.784 120.07 -34.616 121.862 -34.616C123.414 -34.616 124.95 -34.024 125.094 -32.264H123.958C123.83 -33.192 123.046 -33.624 121.862 -33.624C120.742 -33.624 120.07 -33.192 120.07 -32.52C120.07 -31.976 120.438 -31.576 121.446 -31.4L122.918 -31.16C123.99 -30.984 125.126 -30.504 125.126 -29.08C125.126 -27.624 123.814 -26.808 121.99 -26.808C120.102 -26.808 118.758 -27.592 118.534 -29.336H119.67ZM126.781 -24.952L127.565 -27.016C127.229 -27.144 127.053 -27.384 127.053 -27.688C127.053 -28.136 127.405 -28.472 127.853 -28.472C128.317 -28.472 128.669 -28.136 128.669 -27.688C128.669 -27.512 128.669 -27.4 128.413 -26.904L127.549 -24.952H126.781ZM138.761 -34.6C140.889 -34.6 142.585 -32.872 142.585 -30.712C142.585 -28.536 140.889 -26.824 138.761 -26.824C137.705 -26.824 136.809 -27.176 136.153 -27.784V-23.288H134.937V-34.424H136.153V-33.64C136.809 -34.248 137.705 -34.6 138.761 -34.6ZM138.601 -27.896C140.169 -27.896 141.369 -29.176 141.369 -30.712C141.369 -32.248 140.169 -33.528 138.601 -33.528C137.625 -33.528 136.761 -33.128 136.153 -32.232V-29.192C136.761 -28.296 137.625 -27.896 138.601 -27.896ZM144.75 -38.36H145.966V-27H144.75V-38.36ZM154.579 -34.424H155.795V-27H154.579V-27.768C153.923 -27.16 153.027 -26.808 151.971 -26.808C149.843 -26.808 148.147 -28.536 148.147 -30.712C148.147 -32.872 149.843 -34.616 151.971 -34.616C153.027 -34.616 153.923 -34.264 154.579 -33.656V-34.424ZM152.131 -27.928C153.107 -27.928 153.971 -28.296 154.579 -29.192V-32.232C153.971 -33.128 153.107 -33.496 152.131 -33.496C150.563 -33.496 149.363 -32.248 149.363 -30.712C149.363 -29.176 150.563 -27.928 152.131 -27.928ZM162.293 -34.616C164.181 -34.616 165.477 -33.352 165.477 -31.256V-27H164.261V-31.192C164.261 -32.696 163.381 -33.496 162.069 -33.496C161.189 -33.496 160.277 -33.048 159.637 -32.216V-27H158.421V-34.424H159.637V-33.592C160.325 -34.248 161.237 -34.616 162.293 -34.616ZM172.518 -28.2L172.694 -27.08C172.086 -26.872 171.574 -26.808 171.126 -26.808C169.302 -26.808 168.422 -27.816 168.422 -29.752V-33.384H166.486V-34.424H168.422V-37.16H169.638V-34.424H172.438V-33.384H169.638V-29.752C169.638 -28.472 170.182 -27.944 171.238 -27.944C171.654 -27.944 172.118 -28.056 172.518 -28.2ZM180.157 -34.424H181.373V-27H180.157V-27.768C179.501 -27.16 178.605 -26.808 177.549 -26.808C175.421 -26.808 173.725 -28.536 173.725 -30.712C173.725 -32.872 175.421 -34.616 177.549 -34.616C178.605 -34.616 179.501 -34.264 180.157 -33.656V-34.424ZM177.709 -27.928C178.685 -27.928 179.549 -28.296 180.157 -29.192V-32.232C179.549 -33.128 178.685 -33.496 177.709 -33.496C176.141 -33.496 174.941 -32.248 174.941 -30.712C174.941 -29.176 176.141 -27.928 177.709 -27.928ZM184.816 -36.408C184.352 -36.408 184 -36.76 184 -37.208C184 -37.672 184.352 -38.024 184.816 -38.024C185.28 -38.024 185.648 -37.672 185.648 -37.208C185.648 -36.76 185.28 -36.408 184.816 -36.408ZM184.224 -34.424H185.44V-27H184.224V-34.424ZM192.122 -34.616C194.01 -34.616 195.306 -33.352 195.306 -31.256V-27H194.09V-31.192C194.09 -32.696 193.21 -33.496 191.898 -33.496C191.018 -33.496 190.106 -33.048 189.466 -32.216V-27H188.25V-34.424H189.466V-33.592C190.154 -34.248 191.066 -34.616 192.122 -34.616ZM196.953 -24.952L197.737 -27.016C197.401 -27.144 197.225 -27.384 197.225 -27.688C197.225 -28.136 197.577 -28.472 198.025 -28.472C198.489 -28.472 198.841 -28.136 198.841 -27.688C198.841 -27.512 198.841 -27.4 198.585 -26.904L197.721 -24.952H196.953ZM208.677 -34.616C210.933 -34.616 212.613 -32.952 212.613 -30.712C212.613 -28.472 210.933 -26.808 208.677 -26.808C206.405 -26.808 204.725 -28.472 204.725 -30.712C204.725 -32.952 206.405 -34.616 208.677 -34.616ZM208.677 -27.928C210.229 -27.928 211.381 -29.112 211.381 -30.712C211.381 -32.312 210.229 -33.496 208.677 -33.496C207.109 -33.496 205.941 -32.312 205.941 -30.712C205.941 -29.112 207.109 -27.928 208.677 -27.928ZM220.557 -27L217.517 -30.472L215.981 -28.984V-27H214.765V-38.36H215.981V-30.584L219.997 -34.424H221.565L218.381 -31.32L222.141 -27H220.557ZM224.95 -33.208C225.638 -34.088 226.63 -34.6 227.814 -34.6V-33.448C226.598 -33.416 225.606 -32.856 224.95 -31.832V-27H223.734V-34.424H224.95V-33.208ZM235.329 -34.424H236.545V-27H235.329V-27.768C234.673 -27.16 233.777 -26.808 232.721 -26.808C230.593 -26.808 228.897 -28.536 228.897 -30.712C228.897 -32.872 230.593 -34.616 232.721 -34.616C233.777 -34.616 234.673 -34.264 235.329 -33.656V-34.424ZM232.881 -27.928C233.857 -27.928 234.721 -28.296 235.329 -29.192V-32.232C234.721 -33.128 233.857 -33.496 232.881 -33.496C231.313 -33.496 230.113 -32.248 230.113 -30.712C230.113 -29.176 231.313 -27.928 232.881 -27.928ZM238.499 -24.952L239.283 -27.016C238.947 -27.144 238.771 -27.384 238.771 -27.688C238.771 -28.136 239.123 -28.472 239.571 -28.472C240.035 -28.472 240.387 -28.136 240.387 -27.688C240.387 -27.512 240.387 -27.4 240.131 -26.904L239.267 -24.952H238.499ZM252.704 -34.424H253.92V-27H252.704V-27.768C252.048 -27.16 251.152 -26.808 250.096 -26.808C247.968 -26.808 246.272 -28.536 246.272 -30.712C246.272 -32.872 247.968 -34.616 250.096 -34.616C251.152 -34.616 252.048 -34.264 252.704 -33.656V-34.424ZM250.256 -27.928C251.232 -27.928 252.096 -28.296 252.704 -29.192V-32.232C252.096 -33.128 251.232 -33.496 250.256 -33.496C248.688 -33.496 247.488 -32.248 247.488 -30.712C247.488 -29.176 248.688 -27.928 250.256 -27.928ZM260.418 -34.616C262.306 -34.616 263.602 -33.352 263.602 -31.256V-27H262.386V-31.192C262.386 -32.696 261.506 -33.496 260.194 -33.496C259.314 -33.496 258.402 -33.048 257.762 -32.216V-27H256.546V-34.424H257.762V-33.592C258.45 -34.248 259.362 -34.616 260.418 -34.616ZM271.969 -38.36H273.185V-27H271.969V-27.768C271.313 -27.16 270.417 -26.808 269.361 -26.808C267.233 -26.808 265.537 -28.552 265.537 -30.712C265.537 -32.888 267.233 -34.616 269.361 -34.616C270.417 -34.616 271.313 -34.264 271.969 -33.656V-38.36ZM269.521 -27.928C270.497 -27.928 271.361 -28.296 271.969 -29.192V-32.232C271.361 -33.128 270.497 -33.496 269.521 -33.496C267.953 -33.496 266.753 -32.248 266.753 -30.712C266.753 -29.176 267.953 -27.928 269.521 -27.928ZM-95.816 -10.616C-93.928 -10.616 -92.632 -9.352 -92.632 -7.256V-3H-93.848V-7.192C-93.848 -8.696 -94.728 -9.496 -96.04 -9.496C-96.92 -9.496 -97.832 -9.048 -98.472 -8.216V-3H-99.688V-14.36H-98.472V-9.592C-97.784 -10.248 -96.872 -10.616 -95.816 -10.616ZM-86.889 -10.616C-84.505 -10.616 -83.017 -8.776 -83.257 -6.344H-89.465C-89.321 -4.968 -88.377 -3.896 -86.825 -3.896C-85.881 -3.896 -85.161 -4.232 -84.841 -4.856H-83.481C-83.945 -3.576 -85.225 -2.808 -86.825 -2.808C-89.113 -2.808 -90.697 -4.52 -90.697 -6.712C-90.697 -8.904 -89.129 -10.616 -86.889 -10.616ZM-86.889 -9.56C-88.361 -9.56 -89.273 -8.52 -89.449 -7.208H-84.473C-84.537 -8.68 -85.481 -9.56 -86.889 -9.56ZM-74.9369 -10.424H-73.7209V-3H-74.9369V-3.768C-75.5929 -3.16 -76.4889 -2.808 -77.5449 -2.808C-79.6729 -2.808 -81.3689 -4.536 -81.3689 -6.712C-81.3689 -8.872 -79.6729 -10.616 -77.5449 -10.616C-76.4889 -10.616 -75.5929 -10.264 -74.9369 -9.656V-10.424ZM-77.3849 -3.928C-76.4089 -3.928 -75.5449 -4.296 -74.9369 -5.192V-8.232C-75.5449 -9.128 -76.4089 -9.496 -77.3849 -9.496C-78.9529 -9.496 -80.1529 -8.248 -80.1529 -6.712C-80.1529 -5.176 -78.9529 -3.928 -77.3849 -3.928ZM-69.8782 -9.208C-69.1902 -10.088 -68.1982 -10.6 -67.0142 -10.6V-9.448C-68.2302 -9.416 -69.2222 -8.856 -69.8782 -7.832V-3H-71.0942V-10.424H-69.8782V-9.208ZM-60.42 -4.2L-60.244 -3.08C-60.852 -2.872 -61.364 -2.808 -61.812 -2.808C-63.636 -2.808 -64.516 -3.816 -64.516 -5.752V-9.384H-66.452V-10.424H-64.516V-13.16H-63.3V-10.424H-60.5V-9.384H-63.3V-5.752C-63.3 -4.472 -62.756 -3.944 -61.7 -3.944C-61.284 -3.944 -60.82 -4.056 -60.42 -4.2ZM-52.2385 -10.424H-50.9425L-55.9665 0.696H-57.2625L-55.7105 -2.744L-59.5345 -10.424H-58.2225L-55.1185 -4.04L-52.2385 -10.424ZM-39.4056 -10.424H-38.1096L-41.6136 -3H-42.7336L-46.2376 -10.424H-44.9416L-42.1736 -4.536L-39.4056 -10.424ZM-33.5296 -10.616C-31.1456 -10.616 -29.6576 -8.776 -29.8976 -6.344H-36.1056C-35.9616 -4.968 -35.0176 -3.896 -33.4656 -3.896C-32.5216 -3.896 -31.8016 -4.232 -31.4816 -4.856H-30.1216C-30.5856 -3.576 -31.8656 -2.808 -33.4656 -2.808C-35.7536 -2.808 -37.3376 -4.52 -37.3376 -6.712C-37.3376 -8.904 -35.7696 -10.616 -33.5296 -10.616ZM-33.5296 -9.56C-35.0016 -9.56 -35.9136 -8.52 -36.0896 -7.208H-31.1136C-31.1776 -8.68 -32.1216 -9.56 -33.5296 -9.56ZM-21.7025 -10.424H-20.4865V-2.632C-20.4865 -0.456 -21.9745 0.872 -24.1825 0.872C-26.2305 0.872 -27.7025 -0.28 -27.9585 -1.928H-26.7105C-26.5025 -0.92 -25.5745 -0.232 -24.1825 -0.232C-22.6945 -0.232 -21.7025 -1.128 -21.7025 -2.632V-4.024C-22.3905 -3.416 -23.3185 -3.064 -24.3905 -3.064C-26.5185 -3.064 -28.1345 -4.76 -28.1345 -6.808C-28.1345 -9 -26.5185 -10.616 -24.3905 -10.616C-23.3185 -10.616 -22.3905 -10.264 -21.7025 -9.656V-10.424ZM-24.2305 -4.136C-23.2545 -4.136 -22.3265 -4.536 -21.7025 -5.448V-8.232C-22.3265 -9.144 -23.2545 -9.544 -24.2305 -9.544C-25.7985 -9.544 -26.9185 -8.376 -26.9185 -6.808C-26.9185 -5.384 -25.7985 -4.136 -24.2305 -4.136ZM-14.639 -10.616C-12.255 -10.616 -10.767 -8.776 -11.007 -6.344H-17.215C-17.071 -4.968 -16.127 -3.896 -14.575 -3.896C-13.631 -3.896 -12.911 -4.232 -12.591 -4.856H-11.231C-11.695 -3.576 -12.975 -2.808 -14.575 -2.808C-16.863 -2.808 -18.447 -4.52 -18.447 -6.712C-18.447 -8.904 -16.879 -10.616 -14.639 -10.616ZM-14.639 -9.56C-16.111 -9.56 -17.023 -8.52 -17.199 -7.208H-12.223C-12.287 -8.68 -13.231 -9.56 -14.639 -9.56ZM-4.01375 -4.2L-3.83775 -3.08C-4.44575 -2.872 -4.95775 -2.808 -5.40575 -2.808C-7.22975 -2.808 -8.10975 -3.816 -8.10975 -5.752V-9.384H-10.0457V-10.424H-8.10975V-13.16H-6.89375V-10.424H-4.09375V-9.384H-6.89375V-5.752C-6.89375 -4.472 -6.34975 -3.944 -5.29375 -3.944C-4.87775 -3.944 -4.41375 -4.056 -4.01375 -4.2ZM3.62563 -10.424H4.84163V-3H3.62563V-3.768C2.96963 -3.16 2.07363 -2.808 1.01763 -2.808C-1.11037 -2.808 -2.80637 -4.536 -2.80637 -6.712C-2.80637 -8.872 -1.11037 -10.616 1.01763 -10.616C2.07363 -10.616 2.96963 -10.264 3.62563 -9.656V-10.424ZM1.17763 -3.928C2.15363 -3.928 3.01763 -4.296 3.62563 -5.192V-8.232C3.01763 -9.128 2.15363 -9.496 1.17763 -9.496C-0.390375 -9.496 -1.59037 -8.248 -1.59037 -6.712C-1.59037 -5.176 -0.390375 -3.928 1.17763 -3.928ZM11.2923 -10.616C13.4203 -10.616 15.1163 -8.888 15.1163 -6.712C15.1163 -4.552 13.4203 -2.808 11.2923 -2.808C10.2363 -2.808 9.34025 -3.16 8.68425 -3.768V-3H7.46825V-14.36H8.68425V-9.656C9.34025 -10.264 10.2363 -10.616 11.2923 -10.616ZM11.1323 -3.928C12.7003 -3.928 13.9003 -5.176 13.9003 -6.712C13.9003 -8.248 12.7003 -9.496 11.1323 -9.496C10.1562 -9.496 9.29225 -9.128 8.68425 -8.232V-5.192C9.29225 -4.296 10.1562 -3.928 11.1323 -3.928ZM17.2808 -14.36H18.4968V-3H17.2808V-14.36ZM24.486 -10.616C26.87 -10.616 28.358 -8.776 28.118 -6.344H21.91C22.054 -4.968 22.998 -3.896 24.55 -3.896C25.494 -3.896 26.214 -4.232 26.534 -4.856H27.894C27.43 -3.576 26.15 -2.808 24.55 -2.808C22.262 -2.808 20.678 -4.52 20.678 -6.712C20.678 -8.904 22.246 -10.616 24.486 -10.616ZM24.486 -9.56C23.014 -9.56 22.102 -8.52 21.926 -7.208H26.902C26.838 -8.68 25.894 -9.56 24.486 -9.56ZM30.8579 -5.336C31.0819 -4.344 31.8499 -3.816 33.2099 -3.816C34.3619 -3.816 35.1459 -4.248 35.1459 -5C35.1459 -5.624 34.6499 -5.992 33.9299 -6.12L32.2499 -6.392C31.0339 -6.6 30.0419 -7.144 30.0419 -8.408C30.0419 -9.784 31.2579 -10.616 33.0499 -10.616C34.6019 -10.616 36.1379 -10.024 36.2819 -8.264H35.1459C35.0179 -9.192 34.2339 -9.624 33.0499 -9.624C31.9299 -9.624 31.2579 -9.192 31.2579 -8.52C31.2579 -7.976 31.6259 -7.576 32.6339 -7.4L34.1059 -7.16C35.1779 -6.984 36.3139 -6.504 36.3139 -5.08C36.3139 -3.624 35.0019 -2.808 33.1779 -2.808C31.2899 -2.808 29.9459 -3.592 29.7219 -5.336H30.8579ZM38.7841 -2.872C38.3361 -2.872 37.9681 -3.224 37.9681 -3.688C37.9681 -4.136 38.3361 -4.472 38.7841 -4.472C39.2481 -4.472 39.6161 -4.136 39.6161 -3.688C39.6161 -3.224 39.2481 -2.872 38.7841 -2.872Z" fill="#535266"/>
</g>
</g>
</g>
<g id="Frame 77">
<rect x="-101" y="17" width="113" height="40" rx="8" fill="#C73857"/>
</g>
</g>
</g>
</g>
</g>
</g>
</g>
<g id="Frame 115">
<rect width="1440" height="340" transform="translate(-622 -268)" fill="#641728"/>
<g id="Frame 114">
<g id="mdi:copyright">
<path id="Vector" d="M10.08 10.86C10.13 10.53 10.24 10.24 10.38 10C10.68 9.44 11.19 9.15 11.88 9.14C12.33 9.14 12.74 9.34 13.03 9.63C13.31 9.94 13.5 10.37 13.5 10.8H15.3C15.28 10.33 15.19 9.9 15 9.5C14.85 9.12 14.62 8.78 14.32 8.5C12.87 7.16 10.18 7.35 8.95 8.87C7.66 10.54 7.63 13.46 8.94 15.13C10.15 16.62 12.8 16.83 14.24 15.5C14.55 15.25 14.8 14.94 15 14.58C15.16 14.22 15.27 13.84 15.28 13.43H13.5C13.5 13.64 13.43 13.83 13.34 14C13.25 14.19 13.13 14.34 13 14.47C12.67 14.73 12.28 14.87 11.86 14.87C11.5 14.86 11.2 14.79 10.97 14.64C10.7103 14.4948 10.5037 14.2706 10.38 14C9.88 13.1 9.96 11.85 10.08 10.86ZM12 2C6.5 2 2 6.5 2 12C2.53 25.27 21.5 25.26 22 12C22 6.5 17.5 2 12 2ZM12 20C7.59 20 4 16.41 4 12C4.44 1.39 19.56 1.39 20 12C20 16.41 16.41 20 12 20Z" fill="white"/>
</g>
</g>
</g>
</g>
<defs>
<clipPath id="clip0_0_1">
<rect width="1440" height="2809" fill="white" transform="translate(-622 -2737)"/>
</clipPath>
</defs>
</svg>
