<svg width="18" height="18" viewBox="0 0 18 18" fill="none" xmlns="http://www.w3.org/2000/svg">
<path d="M3.83594 11.5734V13.7301C4.49486 14.5378 5.3254 15.1886 6.26723 15.6353C7.20906 16.082 8.23855 16.3133 9.28094 16.3125C11.7132 16.3125 13.8574 15.0773 15.1197 13.2002V10.1773C14.6877 13.014 12.238 15.1875 9.28094 15.1875C6.83181 15.1875 4.73087 13.6969 3.83594 11.5734ZM14.0791 5.83651V4.86788C14.0772 4.65424 14.1122 4.44187 14.1826 4.24013C12.8714 2.96193 11.1121 2.24761 9.28094 2.25001C7.64229 2.24758 6.05468 2.81984 4.79444 3.8672L4.79725 3.90151L4.79781 3.9167V5.43545C5.35186 4.78852 6.03951 4.26933 6.81344 3.91364C7.58737 3.55794 8.42919 3.37418 9.28094 3.37501C11.2576 3.37501 13.0069 4.34588 14.0791 5.83651Z" fill="#878698"/>
<path d="M13.7812 9.28084C13.7812 10.4743 13.3071 11.6189 12.4632 12.4628C11.6193 13.3067 10.4747 13.7808 9.28125 13.7808C8.08778 13.7808 6.94318 13.3067 6.09927 12.4628C5.25536 11.6189 4.78125 10.4743 4.78125 9.28084C4.78125 8.08736 5.25536 6.94277 6.09927 6.09885C6.94318 5.25494 8.08778 4.78084 9.28125 4.78084C10.4747 4.78084 11.6193 5.25494 12.4632 6.09885C13.3071 6.94277 13.7812 8.08736 13.7812 9.28084ZM9.28125 13.2183C9.79833 13.2183 10.3103 13.1165 10.7881 12.9186C11.2658 12.7207 11.6999 12.4307 12.0655 12.0651C12.4311 11.6994 12.7211 11.2654 12.919 10.7877C13.1169 10.3099 13.2187 9.79792 13.2188 9.28084C13.2187 8.76376 13.1169 8.25174 12.919 7.77402C12.7211 7.2963 12.4311 6.86223 12.0655 6.4966C11.6999 6.13097 11.2658 5.84094 10.7881 5.64306C10.3103 5.44518 9.79833 5.34334 9.28125 5.34334C8.23696 5.34334 7.23544 5.75818 6.49702 6.4966C5.75859 7.23503 5.34375 8.23655 5.34375 9.28084C5.34375 10.3251 5.75859 11.3266 6.49702 12.0651C7.23544 12.8035 8.23696 13.2183 9.28125 13.2183ZM16.8694 4.46584C16.8694 3.95959 16.4588 3.54896 15.9525 3.54896C15.2213 3.54896 14.6363 4.13959 14.6419 4.86521V7.98709C14.6419 8.6919 15.0502 9.32302 15.6825 9.60877V14.4558C15.6825 14.7483 15.9187 14.9846 16.2112 14.9846H16.3406C16.6331 14.9846 16.8694 14.7483 16.8694 14.4558V4.46584ZM3.83625 3.54896C3.7348 3.54896 3.63751 3.58926 3.56578 3.66099C3.49405 3.73272 3.45375 3.83002 3.45375 3.93146V5.44459C3.45375 5.55709 3.36375 5.64146 3.25687 5.64146C3.14437 5.64146 3.06 5.55146 3.06 5.44459V3.94834C3.06 3.74021 2.89688 3.55459 2.68875 3.54896C2.46938 3.54334 2.28938 3.71771 2.28938 3.93146V5.44459C2.28938 5.55709 2.19938 5.64146 2.0925 5.64146C1.98 5.64146 1.89562 5.55146 1.89562 5.44459V3.94834C1.89562 3.74021 1.7325 3.55459 1.52438 3.54896C1.305 3.54334 1.125 3.71771 1.125 3.93146V6.50771C1.125 7.01509 1.37081 7.4679 1.74881 7.75027C2.08687 7.94096 2.08688 8.81396 2.08688 8.81396V14.4502C2.08688 14.7427 2.32313 14.979 2.61563 14.979H2.745C3.0375 14.979 3.27375 14.7427 3.27375 14.4502V8.81396C3.27375 8.81396 3.27375 7.97527 3.61181 7.75027C3.80522 7.6059 3.9623 7.41842 4.07059 7.20273C4.17888 6.98703 4.23539 6.74906 4.23563 6.50771V3.93146C4.22993 3.82896 4.18552 3.73245 4.11138 3.66144C4.03724 3.59043 3.9389 3.55023 3.83625 3.54896Z" fill="#878698"/>
</svg>
