<svg width="24" height="24" viewBox="0 0 24 24" fill="none" xmlns="http://www.w3.org/2000/svg">
<g id="heart-line">
<path id="Vector" d="M12.0009 5.27611C14.115 3.37801 17.382 3.44101 19.4187 5.48131C21.4545 7.52251 21.5247 10.7733 19.6311 12.8937L11.9991 20.5365L4.36891 12.8937C2.47531 10.7733 2.54641 7.51711 4.58131 5.48131C6.61981 3.44371 9.88051 3.37531 12.0009 5.27611V5.27611ZM18.1443 6.75301C16.7943 5.40121 14.6163 5.34631 13.2033 6.61531L12.0018 7.69351L10.7994 6.61621C9.38191 5.34541 7.20841 5.40121 5.85481 6.75481C4.51381 8.09581 4.44631 10.2423 5.68201 11.6607L12 17.9886L18.318 11.6616C19.5546 10.2423 19.4871 8.09851 18.1443 6.75301V6.75301Z" fill="#FAEFF1"/>
</g>
</svg>
