<svg width="18" height="18" viewBox="0 0 18 18" fill="none" xmlns="http://www.w3.org/2000/svg">
<path d="M11.7611 6.68668C11.7611 5.86814 12.8508 5.65083 13.1395 6.41763C13.839 8.26994 14.3481 9.92979 14.3481 10.8259C14.3481 12.1982 13.803 13.5142 12.8327 14.4846C11.8624 15.4549 10.5463 16 9.17407 16C7.80182 16 6.48577 15.4549 5.51545 14.4846C4.54512 13.5142 4 12.1982 4 10.8259C4 9.86356 4.58777 8.02055 5.36802 6.0006C6.37697 3.38459 6.88195 2.07659 7.50595 2.00622C7.70463 1.98345 7.92298 2.02381 8.10097 2.11694C8.65666 2.40669 8.65666 3.8337 8.65666 6.68668C8.65666 7.09835 8.8202 7.49317 9.11129 7.78427C9.40239 8.07536 9.79721 8.2389 10.2089 8.2389C10.6206 8.2389 11.0154 8.07536 11.3065 7.78427C11.5976 7.49317 11.7611 7.09835 11.7611 6.68668Z" stroke="#878698"/>
<path d="M8.13844 16.0008L7.86628 15.3209C7.63404 14.7421 7.55986 14.1119 7.65132 13.4949C7.74278 12.878 7.99661 12.2964 8.38679 11.8098C8.48112 11.6918 8.60078 11.5966 8.73692 11.5311C8.87306 11.4656 9.02219 11.4316 9.17325 11.4316C9.32431 11.4316 9.47343 11.4656 9.60957 11.5311C9.74572 11.5966 9.86538 11.6918 9.95971 11.8098C10.7524 12.8012 10.9511 14.1423 10.4802 15.3209L10.2081 16.0008" stroke="#878698"/>
</svg>
