<svg width="18" height="18" viewBox="0 0 18 18" fill="none" xmlns="http://www.w3.org/2000/svg">
<path d="M12.7922 4.92835L13.7729 3.94758L14.7274 4.90203L13.7466 5.8828C14.7157 7.09589 15.1836 8.63402 15.0541 10.1813C14.9246 11.7286 14.2076 13.1675 13.0503 14.2027C11.893 15.2378 10.3833 15.7905 8.83124 15.7473C7.27916 15.7041 5.80253 15.0682 4.70462 13.9703C3.60671 12.8724 2.97086 11.3958 2.92765 9.84371C2.88444 8.29163 3.43716 6.78191 4.47229 5.62462C5.50742 4.46733 6.94639 3.75031 8.49366 3.62082C10.0409 3.49133 11.5791 3.95921 12.7922 4.92835V4.92835ZM9 14.4C9.6205 14.4 10.2349 14.2777 10.8082 14.0403C11.3814 13.8028 11.9023 13.4548 12.3411 13.016C12.7798 12.5773 13.1279 12.0564 13.3653 11.4831C13.6028 10.9099 13.725 10.2954 13.725 9.67495C13.725 9.05445 13.6028 8.44003 13.3653 7.86677C13.1279 7.29351 12.7798 6.77263 12.3411 6.33387C11.9023 5.89511 11.3814 5.54707 10.8082 5.30962C10.2349 5.07217 9.6205 4.94995 9 4.94995C7.74686 4.94995 6.54503 5.44776 5.65892 6.33387C4.77281 7.21998 4.275 8.4218 4.275 9.67495C4.275 10.9281 4.77281 12.1299 5.65892 13.016C6.54503 13.9021 7.74686 14.4 9 14.4V14.4ZM8.325 6.29995H9.675V10.35H8.325V6.29995ZM6.3 1.57495H11.7V2.92495H6.3V1.57495Z" fill="#878698"/>
</svg>
